<svg width="1000" height="185" viewBox="0 0 1000 185" fill="none" xmlns="http://www.w3.org/2000/svg">
<path d="M0 13.8828V1.56742H84.3284V13.8828H48.972V116.213H35.3564V13.8828H0Z" fill="white"/>
<path d="M105.342 116.213V1.56742H118.957V52.6204H178.91V1.56742H192.525V116.213H178.91V64.9359H118.957V116.213H105.342Z" fill="white"/>
<path d="M219.784 116.213V1.56742H257.775C266.56 1.56742 273.77 3.09752 279.407 6.15771C285.043 9.18058 289.216 13.3417 291.924 18.6411C294.632 23.9404 295.987 29.9675 295.987 36.7223C295.987 43.4772 294.632 49.4669 291.924 54.6917C289.216 59.9164 285.061 64.0215 279.461 67.0071C273.861 69.9553 266.706 71.4294 257.995 71.4294H227.25V58.8901H257.556C263.558 58.8901 268.39 57.9944 272.05 56.2031C275.746 54.4118 278.418 51.874 280.065 48.5899C281.749 45.2685 282.591 41.3126 282.591 36.7223C282.591 32.1321 281.749 28.1202 280.065 24.6868C278.382 21.2534 275.692 18.6038 271.995 16.7378C268.298 14.8345 263.412 13.8828 257.336 13.8828H233.399V116.213H219.784ZM272.709 64.7119L300.379 116.213H284.567L257.336 64.7119H272.709Z" fill="white"/>
<path d="M332.29 1.56742V116.213H318.675V1.56742H332.29Z" fill="white"/>
<path d="M359.59 116.213V1.56742H427.009V13.8828H373.205V52.6204H421.958V64.9359H373.205V116.213H359.59Z" fill="white"/>
<path d="M444.179 13.8828V1.56742H528.508V13.8828H493.151V116.213H479.536V13.8828H444.179Z" fill="white"/>
<path d="M654.492 30.2288C653.833 24.5562 651.162 20.1525 646.477 17.0177C641.792 13.8828 636.045 12.3154 629.238 12.3154C624.26 12.3154 619.904 13.1364 616.171 14.7785C612.474 16.4206 609.583 18.6784 607.497 21.552C605.447 24.4256 604.422 27.691 604.422 31.3483C604.422 34.4085 605.136 37.0396 606.563 39.2414C608.027 41.4059 609.894 43.2159 612.163 44.6714C614.433 46.0895 616.812 47.2651 619.301 48.1981C621.789 49.0937 624.077 49.8215 626.163 50.3813L637.583 53.5161C640.511 54.2998 643.768 55.3821 647.355 56.7629C650.979 58.1437 654.437 60.0283 657.731 62.4168C661.062 64.7679 663.807 67.7908 665.967 71.4854C668.126 75.18 669.206 79.7144 669.206 85.0884C669.206 91.2834 667.614 96.8813 664.429 101.882C661.282 106.883 656.67 110.857 650.594 113.806C644.555 116.754 637.217 118.228 628.579 118.228C620.527 118.228 613.554 116.903 607.661 114.254C601.805 111.604 597.194 107.909 593.826 103.17C590.496 98.4301 588.611 92.9254 588.172 86.6558H602.226C602.592 90.9848 604.02 94.5675 606.509 97.4038C609.034 100.203 612.218 102.293 616.061 103.673C619.941 105.017 624.114 105.689 628.579 105.689C633.776 105.689 638.443 104.83 642.579 103.114C646.715 101.36 649.99 98.9339 652.406 95.8364C654.822 92.7015 656.03 89.0442 656.03 84.8644C656.03 81.0579 654.986 77.9603 652.9 75.5719C650.814 73.1835 648.069 71.2428 644.665 69.7501C641.261 68.2573 637.583 66.9511 633.63 65.8315L619.795 61.801C611.01 59.226 604.056 55.55 598.932 50.7731C593.808 45.9962 591.246 39.7452 591.246 32.0201C591.246 25.6011 592.948 20.0032 596.352 15.2263C599.792 10.4121 604.404 6.68018 610.187 4.0305C616.006 1.3435 622.503 0 629.677 0C636.924 0 643.366 1.32484 649.002 3.97452C654.639 6.58688 659.104 10.1695 662.398 14.7225C665.729 19.2755 667.486 24.4442 667.669 30.2288H654.492Z" fill="white"/>
<path d="M691.592 116.213V1.56742H705.207V52.6204H765.16V1.56742H778.775V116.213H765.16V64.9359H705.207V116.213H691.592Z" fill="white"/>
<path d="M900.903 58.8901C900.903 70.9816 898.762 81.4311 894.48 90.2384C890.197 99.0458 884.323 105.838 876.856 110.615C869.39 115.392 860.862 117.78 851.272 117.78C841.683 117.78 833.155 115.392 825.688 110.615C818.222 105.838 812.347 99.0458 808.065 90.2384C803.783 81.4311 801.642 70.9816 801.642 58.8901C801.642 46.7986 803.783 36.3492 808.065 27.5418C812.347 18.7344 818.222 11.9422 825.688 7.16534C833.155 2.38845 841.683 0 851.272 0C860.862 0 869.39 2.38845 876.856 7.16534C884.323 11.9422 890.197 18.7344 894.48 27.5418C898.762 36.3492 900.903 46.7986 900.903 58.8901ZM887.727 58.8901C887.727 48.9631 886.098 40.5849 882.841 33.7555C879.62 26.926 875.246 21.7572 869.719 18.2492C864.229 14.7412 858.08 12.9872 851.272 12.9872C844.465 12.9872 838.297 14.7412 832.771 18.2492C827.28 21.7572 822.907 26.926 819.649 33.7555C816.428 40.5849 814.818 48.9631 814.818 58.8901C814.818 68.8171 816.428 77.1953 819.649 84.0248C822.907 90.8542 827.28 96.023 832.771 99.531C838.297 103.039 844.465 104.793 851.272 104.793C858.08 104.793 864.229 103.039 869.719 99.531C875.246 96.023 879.62 90.8542 882.841 84.0248C886.098 77.1953 887.727 68.8171 887.727 58.8901Z" fill="white"/>
<path d="M923.797 116.213V1.56742H961.789C970.609 1.56742 977.82 3.19081 983.42 6.4376C989.056 9.64708 993.229 13.9948 995.937 19.4808C998.646 24.9667 1000 31.0871 1000 37.8419C1000 44.5968 998.646 50.7358 995.937 56.2591C993.265 61.7824 989.13 66.1861 983.53 69.4702C977.93 72.717 970.756 74.3404 962.008 74.3404H934.777V62.0249H961.569C967.608 62.0249 972.458 60.9613 976.118 58.8341C979.778 56.7069 982.432 53.8333 984.079 50.2133C985.762 46.556 986.604 42.4322 986.604 37.8419C986.604 33.2516 985.762 29.1465 984.079 25.5265C982.432 21.9065 979.76 19.0702 976.063 17.0177C972.366 14.9278 967.462 13.8828 961.349 13.8828H937.412V116.213H923.797Z" fill="white"/>
<path d="M362.041 179.954V185H348.367V179.954H362.041Z" fill="white"/>
<path d="M381.366 179.954V185H367.692V179.954H381.366Z" fill="white"/>
<path d="M400.692 179.954V185H387.018V179.954H400.692Z" fill="white"/>
<path d="M420.017 179.954V185H406.343V179.954H420.017Z" fill="white"/>
<path d="M439.342 179.954V185H425.668V179.954H439.342Z" fill="white"/>
<path d="M458.668 179.954V185H444.993V179.954H458.668Z" fill="white"/>
<path d="M477.993 179.954V185H464.319V179.954H477.993Z" fill="white"/>
<path d="M497.318 179.954V185H483.644V179.954H497.318Z" fill="white"/>
<path d="M516.643 179.954V185H502.969V179.954H516.643Z" fill="white"/>
<path d="M535.969 179.954V185H522.295V179.954H535.969Z" fill="white"/>
<path d="M555.294 179.954V185H541.62V179.954H555.294Z" fill="white"/>
<path d="M574.619 179.954V185H560.945V179.954H574.619Z" fill="white"/>
<path d="M593.944 179.954V185H580.27V179.954H593.944Z" fill="white"/>
<path d="M613.27 179.954V185H599.596V179.954H613.27Z" fill="white"/>
<path d="M632.595 179.954V185H618.921V179.954H632.595Z" fill="white"/>
<path d="M651.92 179.954V185H638.246V179.954H651.92Z" fill="white"/>
</svg>
